<?xml version="1.0" encoding="UTF-8"?>
<!DOCTYPE svg PUBLIC "-//W3C//DTD SVG 1.1//EN" "http://www.w3.org/Graphics/SVG/1.1/DTD/svg11.dtd">
<svg width="346mm" height="219mm" viewBox="0 0 34600 21900" version="1.1" xmlns="http://www.w3.org/2000/svg" xmlns:xlink="http://www.w3.org/1999/xlink" stroke-width="28.222" stroke-linejoin="round" xml:space="preserve">
 <path fill="rgb(255,255,255)" stroke="none" d="M 17320,21868 L 0,21868 0,0 34639,0 34639,21868 17320,21868 Z"/>
 <path fill="none" stroke="rgb(179,179,179)" stroke-linejoin="round" d="M 15934,19356 L 2821,19356 2821,979 29046,979 29046,19356 15934,19356 Z"/>
 <path fill="none" stroke="rgb(179,179,179)" stroke-linejoin="round" d="M 2821,978 L 2821,19355"/>
 <path fill="none" stroke="rgb(179,179,179)" stroke-linejoin="round" d="M 5443,978 L 5443,19355"/>
 <path fill="none" stroke="rgb(179,179,179)" stroke-linejoin="round" d="M 8066,978 L 8066,19355"/>
 <path fill="none" stroke="rgb(179,179,179)" stroke-linejoin="round" d="M 10688,978 L 10688,19355"/>
 <path fill="none" stroke="rgb(179,179,179)" stroke-linejoin="round" d="M 13311,978 L 13311,19355"/>
 <path fill="none" stroke="rgb(179,179,179)" stroke-linejoin="round" d="M 15934,978 L 15934,19355"/>
 <path fill="none" stroke="rgb(179,179,179)" stroke-linejoin="round" d="M 18555,978 L 18555,19355"/>
 <path fill="none" stroke="rgb(179,179,179)" stroke-linejoin="round" d="M 21178,978 L 21178,19355"/>
 <path fill="none" stroke="rgb(179,179,179)" stroke-linejoin="round" d="M 23800,978 L 23800,19355"/>
 <path fill="none" stroke="rgb(179,179,179)" stroke-linejoin="round" d="M 26423,978 L 26423,19355"/>
 <path fill="none" stroke="rgb(179,179,179)" stroke-linejoin="round" d="M 29046,978 L 29046,19355"/>
 <path fill="none" stroke="rgb(221,221,221)" stroke-linejoin="round" d="M 3345,978 L 3345,19355"/>
 <path fill="none" stroke="rgb(221,221,221)" stroke-linejoin="round" d="M 3870,978 L 3870,19355"/>
 <path fill="none" stroke="rgb(221,221,221)" stroke-linejoin="round" d="M 4394,978 L 4394,19355"/>
 <path fill="none" stroke="rgb(221,221,221)" stroke-linejoin="round" d="M 4919,978 L 4919,19355"/>
 <path fill="none" stroke="rgb(221,221,221)" stroke-linejoin="round" d="M 5968,978 L 5968,19355"/>
 <path fill="none" stroke="rgb(221,221,221)" stroke-linejoin="round" d="M 6492,978 L 6492,19355"/>
 <path fill="none" stroke="rgb(221,221,221)" stroke-linejoin="round" d="M 7017,978 L 7017,19355"/>
 <path fill="none" stroke="rgb(221,221,221)" stroke-linejoin="round" d="M 7541,978 L 7541,19355"/>
 <path fill="none" stroke="rgb(221,221,221)" stroke-linejoin="round" d="M 8590,978 L 8590,19355"/>
 <path fill="none" stroke="rgb(221,221,221)" stroke-linejoin="round" d="M 9115,978 L 9115,19355"/>
 <path fill="none" stroke="rgb(221,221,221)" stroke-linejoin="round" d="M 9639,978 L 9639,19355"/>
 <path fill="none" stroke="rgb(221,221,221)" stroke-linejoin="round" d="M 10164,978 L 10164,19355"/>
 <path fill="none" stroke="rgb(221,221,221)" stroke-linejoin="round" d="M 11213,978 L 11213,19355"/>
 <path fill="none" stroke="rgb(221,221,221)" stroke-linejoin="round" d="M 11737,978 L 11737,19355"/>
 <path fill="none" stroke="rgb(221,221,221)" stroke-linejoin="round" d="M 12262,978 L 12262,19355"/>
 <path fill="none" stroke="rgb(221,221,221)" stroke-linejoin="round" d="M 12786,978 L 12786,19355"/>
 <path fill="none" stroke="rgb(221,221,221)" stroke-linejoin="round" d="M 13835,978 L 13835,19355"/>
 <path fill="none" stroke="rgb(221,221,221)" stroke-linejoin="round" d="M 14360,978 L 14360,19355"/>
 <path fill="none" stroke="rgb(221,221,221)" stroke-linejoin="round" d="M 14884,978 L 14884,19355"/>
 <path fill="none" stroke="rgb(221,221,221)" stroke-linejoin="round" d="M 15409,978 L 15409,19355"/>
 <path fill="none" stroke="rgb(221,221,221)" stroke-linejoin="round" d="M 16458,978 L 16458,19355"/>
 <path fill="none" stroke="rgb(221,221,221)" stroke-linejoin="round" d="M 16983,978 L 16983,19355"/>
 <path fill="none" stroke="rgb(221,221,221)" stroke-linejoin="round" d="M 17506,978 L 17506,19355"/>
 <path fill="none" stroke="rgb(221,221,221)" stroke-linejoin="round" d="M 18031,978 L 18031,19355"/>
 <path fill="none" stroke="rgb(221,221,221)" stroke-linejoin="round" d="M 19080,978 L 19080,19355"/>
 <path fill="none" stroke="rgb(221,221,221)" stroke-linejoin="round" d="M 19604,978 L 19604,19355"/>
 <path fill="none" stroke="rgb(221,221,221)" stroke-linejoin="round" d="M 20129,978 L 20129,19355"/>
 <path fill="none" stroke="rgb(221,221,221)" stroke-linejoin="round" d="M 20653,978 L 20653,19355"/>
 <path fill="none" stroke="rgb(221,221,221)" stroke-linejoin="round" d="M 21702,978 L 21702,19355"/>
 <path fill="none" stroke="rgb(221,221,221)" stroke-linejoin="round" d="M 22227,978 L 22227,19355"/>
 <path fill="none" stroke="rgb(221,221,221)" stroke-linejoin="round" d="M 22751,978 L 22751,19355"/>
 <path fill="none" stroke="rgb(221,221,221)" stroke-linejoin="round" d="M 23276,978 L 23276,19355"/>
 <path fill="none" stroke="rgb(221,221,221)" stroke-linejoin="round" d="M 24325,978 L 24325,19355"/>
 <path fill="none" stroke="rgb(221,221,221)" stroke-linejoin="round" d="M 24849,978 L 24849,19355"/>
 <path fill="none" stroke="rgb(221,221,221)" stroke-linejoin="round" d="M 25374,978 L 25374,19355"/>
 <path fill="none" stroke="rgb(221,221,221)" stroke-linejoin="round" d="M 25898,978 L 25898,19355"/>
 <path fill="none" stroke="rgb(221,221,221)" stroke-linejoin="round" d="M 26947,978 L 26947,19355"/>
 <path fill="none" stroke="rgb(221,221,221)" stroke-linejoin="round" d="M 27472,978 L 27472,19355"/>
 <path fill="none" stroke="rgb(221,221,221)" stroke-linejoin="round" d="M 27996,978 L 27996,19355"/>
 <path fill="none" stroke="rgb(221,221,221)" stroke-linejoin="round" d="M 28521,978 L 28521,19355"/>
 <path fill="none" stroke="rgb(179,179,179)" stroke-linejoin="round" d="M 29046,19355 L 2821,19355"/>
 <path fill="none" stroke="rgb(179,179,179)" stroke-linejoin="round" d="M 29046,17517 L 2821,17517"/>
 <path fill="none" stroke="rgb(179,179,179)" stroke-linejoin="round" d="M 29046,15679 L 2821,15679"/>
 <path fill="none" stroke="rgb(179,179,179)" stroke-linejoin="round" d="M 29046,13841 L 2821,13841"/>
 <path fill="none" stroke="rgb(179,179,179)" stroke-linejoin="round" d="M 29046,12003 L 2821,12003"/>
 <path fill="none" stroke="rgb(179,179,179)" stroke-linejoin="round" d="M 29046,10167 L 2821,10167"/>
 <path fill="none" stroke="rgb(179,179,179)" stroke-linejoin="round" d="M 29046,8329 L 2821,8329"/>
 <path fill="none" stroke="rgb(179,179,179)" stroke-linejoin="round" d="M 29046,6491 L 2821,6491"/>
 <path fill="none" stroke="rgb(179,179,179)" stroke-linejoin="round" d="M 29046,4653 L 2821,4653"/>
 <path fill="none" stroke="rgb(179,179,179)" stroke-linejoin="round" d="M 29046,2815 L 2821,2815"/>
 <path fill="none" stroke="rgb(179,179,179)" stroke-linejoin="round" d="M 29046,978 L 2821,978"/>
 <path fill="none" stroke="rgb(221,221,221)" stroke-linejoin="round" d="M 29046,18987 L 2821,18987"/>
 <path fill="none" stroke="rgb(221,221,221)" stroke-linejoin="round" d="M 29046,18619 L 2821,18619"/>
 <path fill="none" stroke="rgb(221,221,221)" stroke-linejoin="round" d="M 29046,18252 L 2821,18252"/>
 <path fill="none" stroke="rgb(221,221,221)" stroke-linejoin="round" d="M 29046,17884 L 2821,17884"/>
 <path fill="none" stroke="rgb(221,221,221)" stroke-linejoin="round" d="M 29046,17149 L 2821,17149"/>
 <path fill="none" stroke="rgb(221,221,221)" stroke-linejoin="round" d="M 29046,16782 L 2821,16782"/>
 <path fill="none" stroke="rgb(221,221,221)" stroke-linejoin="round" d="M 29046,16414 L 2821,16414"/>
 <path fill="none" stroke="rgb(221,221,221)" stroke-linejoin="round" d="M 29046,16046 L 2821,16046"/>
 <path fill="none" stroke="rgb(221,221,221)" stroke-linejoin="round" d="M 29046,15311 L 2821,15311"/>
 <path fill="none" stroke="rgb(221,221,221)" stroke-linejoin="round" d="M 29046,14944 L 2821,14944"/>
 <path fill="none" stroke="rgb(221,221,221)" stroke-linejoin="round" d="M 29046,14576 L 2821,14576"/>
 <path fill="none" stroke="rgb(221,221,221)" stroke-linejoin="round" d="M 29046,14209 L 2821,14209"/>
 <path fill="none" stroke="rgb(221,221,221)" stroke-linejoin="round" d="M 29046,13474 L 2821,13474"/>
 <path fill="none" stroke="rgb(221,221,221)" stroke-linejoin="round" d="M 29046,13106 L 2821,13106"/>
 <path fill="none" stroke="rgb(221,221,221)" stroke-linejoin="round" d="M 29046,12738 L 2821,12738"/>
 <path fill="none" stroke="rgb(221,221,221)" stroke-linejoin="round" d="M 29046,12371 L 2821,12371"/>
 <path fill="none" stroke="rgb(221,221,221)" stroke-linejoin="round" d="M 29046,11636 L 2821,11636"/>
 <path fill="none" stroke="rgb(221,221,221)" stroke-linejoin="round" d="M 29046,11268 L 2821,11268"/>
 <path fill="none" stroke="rgb(221,221,221)" stroke-linejoin="round" d="M 29046,10902 L 2821,10902"/>
 <path fill="none" stroke="rgb(221,221,221)" stroke-linejoin="round" d="M 29046,10534 L 2821,10534"/>
 <path fill="none" stroke="rgb(221,221,221)" stroke-linejoin="round" d="M 29046,9799 L 2821,9799"/>
 <path fill="none" stroke="rgb(221,221,221)" stroke-linejoin="round" d="M 29046,9431 L 2821,9431"/>
 <path fill="none" stroke="rgb(221,221,221)" stroke-linejoin="round" d="M 29046,9064 L 2821,9064"/>
 <path fill="none" stroke="rgb(221,221,221)" stroke-linejoin="round" d="M 29046,8696 L 2821,8696"/>
 <path fill="none" stroke="rgb(221,221,221)" stroke-linejoin="round" d="M 29046,7961 L 2821,7961"/>
 <path fill="none" stroke="rgb(221,221,221)" stroke-linejoin="round" d="M 29046,7594 L 2821,7594"/>
 <path fill="none" stroke="rgb(221,221,221)" stroke-linejoin="round" d="M 29046,7226 L 2821,7226"/>
 <path fill="none" stroke="rgb(221,221,221)" stroke-linejoin="round" d="M 29046,6858 L 2821,6858"/>
 <path fill="none" stroke="rgb(221,221,221)" stroke-linejoin="round" d="M 29046,6123 L 2821,6123"/>
 <path fill="none" stroke="rgb(221,221,221)" stroke-linejoin="round" d="M 29046,5756 L 2821,5756"/>
 <path fill="none" stroke="rgb(221,221,221)" stroke-linejoin="round" d="M 29046,5388 L 2821,5388"/>
 <path fill="none" stroke="rgb(221,221,221)" stroke-linejoin="round" d="M 29046,5021 L 2821,5021"/>
 <path fill="none" stroke="rgb(221,221,221)" stroke-linejoin="round" d="M 29046,4286 L 2821,4286"/>
 <path fill="none" stroke="rgb(221,221,221)" stroke-linejoin="round" d="M 29046,3918 L 2821,3918"/>
 <path fill="none" stroke="rgb(221,221,221)" stroke-linejoin="round" d="M 29046,3550 L 2821,3550"/>
 <path fill="none" stroke="rgb(221,221,221)" stroke-linejoin="round" d="M 29046,3183 L 2821,3183"/>
 <path fill="none" stroke="rgb(221,221,221)" stroke-linejoin="round" d="M 29046,2448 L 2821,2448"/>
 <path fill="none" stroke="rgb(221,221,221)" stroke-linejoin="round" d="M 29046,2080 L 2821,2080"/>
 <path fill="none" stroke="rgb(221,221,221)" stroke-linejoin="round" d="M 29046,1713 L 2821,1713"/>
 <path fill="none" stroke="rgb(221,221,221)" stroke-linejoin="round" d="M 29046,1345 L 2821,1345"/>
 <path fill="none" stroke="rgb(179,179,179)" stroke-linejoin="round" d="M 2821,19505 L 2821,19355"/>
 <path fill="none" stroke="rgb(179,179,179)" stroke-linejoin="round" d="M 2821,19505 L 2821,19355"/>
 <path fill="none" stroke="rgb(179,179,179)" stroke-linejoin="round" d="M 5443,19505 L 5443,19355"/>
 <path fill="none" stroke="rgb(179,179,179)" stroke-linejoin="round" d="M 5443,19505 L 5443,19355"/>
 <path fill="none" stroke="rgb(179,179,179)" stroke-linejoin="round" d="M 8066,19505 L 8066,19355"/>
 <path fill="none" stroke="rgb(179,179,179)" stroke-linejoin="round" d="M 8066,19505 L 8066,19355"/>
 <path fill="none" stroke="rgb(179,179,179)" stroke-linejoin="round" d="M 10688,19505 L 10688,19355"/>
 <path fill="none" stroke="rgb(179,179,179)" stroke-linejoin="round" d="M 10688,19505 L 10688,19355"/>
 <path fill="none" stroke="rgb(179,179,179)" stroke-linejoin="round" d="M 13311,19505 L 13311,19355"/>
 <path fill="none" stroke="rgb(179,179,179)" stroke-linejoin="round" d="M 13311,19505 L 13311,19355"/>
 <path fill="none" stroke="rgb(179,179,179)" stroke-linejoin="round" d="M 15934,19505 L 15934,19355"/>
 <path fill="none" stroke="rgb(179,179,179)" stroke-linejoin="round" d="M 15934,19505 L 15934,19355"/>
 <path fill="none" stroke="rgb(179,179,179)" stroke-linejoin="round" d="M 18555,19505 L 18555,19355"/>
 <path fill="none" stroke="rgb(179,179,179)" stroke-linejoin="round" d="M 18555,19505 L 18555,19355"/>
 <path fill="none" stroke="rgb(179,179,179)" stroke-linejoin="round" d="M 21178,19505 L 21178,19355"/>
 <path fill="none" stroke="rgb(179,179,179)" stroke-linejoin="round" d="M 21178,19505 L 21178,19355"/>
 <path fill="none" stroke="rgb(179,179,179)" stroke-linejoin="round" d="M 23800,19505 L 23800,19355"/>
 <path fill="none" stroke="rgb(179,179,179)" stroke-linejoin="round" d="M 23800,19505 L 23800,19355"/>
 <path fill="none" stroke="rgb(179,179,179)" stroke-linejoin="round" d="M 26423,19505 L 26423,19355"/>
 <path fill="none" stroke="rgb(179,179,179)" stroke-linejoin="round" d="M 26423,19505 L 26423,19355"/>
 <path fill="none" stroke="rgb(179,179,179)" stroke-linejoin="round" d="M 29046,19505 L 29046,19355"/>
 <path fill="none" stroke="rgb(179,179,179)" stroke-linejoin="round" d="M 29046,19505 L 29046,19355"/>
 <path fill="none" stroke="rgb(179,179,179)" stroke-linejoin="round" d="M 2821,19355 L 29046,19355"/>
 <path fill="none" stroke="rgb(179,179,179)" stroke-linejoin="round" d="M 2671,19355 L 2821,19355"/>
 <path fill="none" stroke="rgb(179,179,179)" stroke-linejoin="round" d="M 2671,19355 L 2821,19355"/>
 <path fill="none" stroke="rgb(179,179,179)" stroke-linejoin="round" d="M 2671,17517 L 2821,17517"/>
 <path fill="none" stroke="rgb(179,179,179)" stroke-linejoin="round" d="M 2671,17517 L 2821,17517"/>
 <path fill="none" stroke="rgb(179,179,179)" stroke-linejoin="round" d="M 2671,15679 L 2821,15679"/>
 <path fill="none" stroke="rgb(179,179,179)" stroke-linejoin="round" d="M 2671,15679 L 2821,15679"/>
 <path fill="none" stroke="rgb(179,179,179)" stroke-linejoin="round" d="M 2671,13841 L 2821,13841"/>
 <path fill="none" stroke="rgb(179,179,179)" stroke-linejoin="round" d="M 2671,13841 L 2821,13841"/>
 <path fill="none" stroke="rgb(179,179,179)" stroke-linejoin="round" d="M 2671,12003 L 2821,12003"/>
 <path fill="none" stroke="rgb(179,179,179)" stroke-linejoin="round" d="M 2671,12003 L 2821,12003"/>
 <path fill="none" stroke="rgb(179,179,179)" stroke-linejoin="round" d="M 2671,10167 L 2821,10167"/>
 <path fill="none" stroke="rgb(179,179,179)" stroke-linejoin="round" d="M 2671,10167 L 2821,10167"/>
 <path fill="none" stroke="rgb(179,179,179)" stroke-linejoin="round" d="M 2671,8329 L 2821,8329"/>
 <path fill="none" stroke="rgb(179,179,179)" stroke-linejoin="round" d="M 2671,8329 L 2821,8329"/>
 <path fill="none" stroke="rgb(179,179,179)" stroke-linejoin="round" d="M 2671,6491 L 2821,6491"/>
 <path fill="none" stroke="rgb(179,179,179)" stroke-linejoin="round" d="M 2671,6491 L 2821,6491"/>
 <path fill="none" stroke="rgb(179,179,179)" stroke-linejoin="round" d="M 2671,4653 L 2821,4653"/>
 <path fill="none" stroke="rgb(179,179,179)" stroke-linejoin="round" d="M 2671,4653 L 2821,4653"/>
 <path fill="none" stroke="rgb(179,179,179)" stroke-linejoin="round" d="M 2671,2815 L 2821,2815"/>
 <path fill="none" stroke="rgb(179,179,179)" stroke-linejoin="round" d="M 2671,2815 L 2821,2815"/>
 <path fill="none" stroke="rgb(179,179,179)" stroke-linejoin="round" d="M 2671,978 L 2821,978"/>
 <path fill="none" stroke="rgb(179,179,179)" stroke-linejoin="round" d="M 2671,978 L 2821,978"/>
 <path fill="none" stroke="rgb(179,179,179)" stroke-linejoin="round" d="M 2821,19355 L 2821,978"/>
 <path fill="none" stroke="rgb(255,66,14)" stroke-width="51" stroke-linejoin="round" stroke-dasharray="153,153" d="M 3345,10480 L 3870,10480 4394,10480 4919,10480 5443,10480 5968,10480 6492,10480 7017,10480 7541,10480 8066,10480 8590,10480 9115,10480 9639,10480 10164,10480 10688,10480 11213,10480 11737,10480 12262,10480 12786,10480 13311,10480 13835,10480 14360,10480 14884,10480 15409,10480 15934,10480 16458,10480 16983,10480 17506,10480 18031,10480 18555,10480 19080,10480 19604,10480 20129,10480 20653,10480 21178,10480 21702,10480 22227,10480 22751,10480 23276,10480 23800,10480 24325,10480 24849,10480 25374,10480 25898,10480 26423,10480 26947,10480 27472,10480 27996,10480 28521,10480"/>
 <path fill="none" stroke="rgb(255,66,14)" stroke-width="80" stroke-linejoin="round" d="M 3345,19351 L 3870,9740 4394,9733 4919,9700 5443,9687 5968,9419 6492,9097 7017,9286 7541,9430 8066,9271 8590,9082 9115,9023 9639,9044 10164,8939 10688,8851 11213,8911 11737,8930 12262,8972 12786,8933 13311,8933 13835,8972 14360,8660 14884,8645 15409,9775 15934,9224 16458,8970 16983,9064 17506,9062 18031,8307 18555,8404 19080,7481 19604,12281 20129,12340 20653,12001 21178,11935 21702,12409 22227,12422 22751,12336 23276,12420 23800,12378 24325,12432 24849,12534 25374,12494 25898,12457 26423,12450 26947,12529 27472,12485 27996,12358 28521,12345"/>
 <path fill="none" stroke="rgb(42,96,153)" stroke-width="51" stroke-linejoin="round" stroke-dasharray="153,153" d="M 3345,4780 L 3870,4780 4394,4780 4919,4780 5443,4780 5968,4780 6492,4780 7017,4780 7541,4780 8066,4780 8590,4780 9115,4780 9639,4780 10164,4780 10688,4780 11213,4780 11737,4780 12262,4780 12786,4780 13311,4780 13835,4780 14360,4780 14884,4780 15409,4780 15934,4780 16458,4780 16983,4780 17506,4780 18031,4780 18555,4780 19080,4780 19604,4780 20129,4780 20653,4780 21178,4780 21702,4780 22227,4780 22751,4780 23276,4780 23800,4780 24325,4780 24849,4780 25374,4780 25898,4780 26423,4780 26947,4780 27472,4780 27996,4780 28521,4780"/>
 <path fill="none" stroke="rgb(0,69,134)" stroke-width="80" stroke-linejoin="round" d="M 3345,1288 L 3870,2845 4394,4673 4919,3901 5443,4223 5968,4506 6492,5201 7017,4236 7541,4660 8066,5331 8590,4455 9115,4879 9639,5576 10164,4583 10688,5201 11213,4300 11737,4853 12262,5473 12786,4596 13311,4995 13835,4660 14360,4982 14884,4120 15409,4648 15934,5111 16458,4223 16983,4622 17506,5239 18031,4442 18555,4982 19080,4442 19604,4776 20129,5807 20653,5111 21178,4802 21702,4995 22227,4506 22751,5072 23276,4660 23800,4699 24325,5370 24849,4506 25374,6515 25898,5601 26423,5923 26947,4210 27472,6283 27996,5293 28521,4841"/>
 <text class="TextShape"><tspan class="TextParagraph" font-family="Liberation Sans, sans-serif" font-size="353px" font-weight="400"><tspan class="TextPosition" x="2728" y="19923"><tspan fill="rgb(0,0,0)" stroke="none">0</tspan></tspan></tspan></text>
 <text class="TextShape"><tspan class="TextParagraph" font-family="Liberation Sans, sans-serif" font-size="353px" font-weight="400"><tspan class="TextPosition" x="5350" y="19923"><tspan fill="rgb(0,0,0)" stroke="none">5</tspan></tspan></tspan></text>
 <text class="TextShape"><tspan class="TextParagraph" font-family="Liberation Sans, sans-serif" font-size="353px" font-weight="400"><tspan class="TextPosition" x="7881" y="19923"><tspan fill="rgb(0,0,0)" stroke="none">10</tspan></tspan></tspan></text>
 <text class="TextShape"><tspan class="TextParagraph" font-family="Liberation Sans, sans-serif" font-size="353px" font-weight="400"><tspan class="TextPosition" x="10503" y="19923"><tspan fill="rgb(0,0,0)" stroke="none">15</tspan></tspan></tspan></text>
 <text class="TextShape"><tspan class="TextParagraph" font-family="Liberation Sans, sans-serif" font-size="353px" font-weight="400"><tspan class="TextPosition" x="13126" y="19923"><tspan fill="rgb(0,0,0)" stroke="none">20</tspan></tspan></tspan></text>
 <text class="TextShape"><tspan class="TextParagraph" font-family="Liberation Sans, sans-serif" font-size="353px" font-weight="400"><tspan class="TextPosition" x="15749" y="19923"><tspan fill="rgb(0,0,0)" stroke="none">25</tspan></tspan></tspan></text>
 <text class="TextShape"><tspan class="TextParagraph" font-family="Liberation Sans, sans-serif" font-size="353px" font-weight="400"><tspan class="TextPosition" x="18371" y="19923"><tspan fill="rgb(0,0,0)" stroke="none">30</tspan></tspan></tspan></text>
 <text class="TextShape"><tspan class="TextParagraph" font-family="Liberation Sans, sans-serif" font-size="353px" font-weight="400"><tspan class="TextPosition" x="20994" y="19923"><tspan fill="rgb(0,0,0)" stroke="none">35</tspan></tspan></tspan></text>
 <text class="TextShape"><tspan class="TextParagraph" font-family="Liberation Sans, sans-serif" font-size="353px" font-weight="400"><tspan class="TextPosition" x="23616" y="19923"><tspan fill="rgb(0,0,0)" stroke="none">40</tspan></tspan></tspan></text>
 <text class="TextShape"><tspan class="TextParagraph" font-family="Liberation Sans, sans-serif" font-size="353px" font-weight="400"><tspan class="TextPosition" x="26239" y="19923"><tspan fill="rgb(0,0,0)" stroke="none">45</tspan></tspan></tspan></text>
 <text class="TextShape"><tspan class="TextParagraph" font-family="Liberation Sans, sans-serif" font-size="353px" font-weight="400"><tspan class="TextPosition" x="28862" y="19923"><tspan fill="rgb(0,0,0)" stroke="none">50</tspan></tspan></tspan></text>
 <text class="TextShape"><tspan class="TextParagraph" font-family="Liberation Sans, sans-serif" font-size="353px" font-weight="400"><tspan class="TextPosition" x="2386" y="19476"><tspan fill="rgb(0,0,0)" stroke="none">0</tspan></tspan></tspan></text>
 <text class="TextShape"><tspan class="TextParagraph" font-family="Liberation Sans, sans-serif" font-size="353px" font-weight="400"><tspan class="TextPosition" x="2201" y="17638"><tspan fill="rgb(0,0,0)" stroke="none">10</tspan></tspan></tspan></text>
 <text class="TextShape"><tspan class="TextParagraph" font-family="Liberation Sans, sans-serif" font-size="353px" font-weight="400"><tspan class="TextPosition" x="2201" y="15800"><tspan fill="rgb(0,0,0)" stroke="none">20</tspan></tspan></tspan></text>
 <text class="TextShape"><tspan class="TextParagraph" font-family="Liberation Sans, sans-serif" font-size="353px" font-weight="400"><tspan class="TextPosition" x="2201" y="13962"><tspan fill="rgb(0,0,0)" stroke="none">30</tspan></tspan></tspan></text>
 <text class="TextShape"><tspan class="TextParagraph" font-family="Liberation Sans, sans-serif" font-size="353px" font-weight="400"><tspan class="TextPosition" x="2201" y="12124"><tspan fill="rgb(0,0,0)" stroke="none">40</tspan></tspan></tspan></text>
 <text class="TextShape"><tspan class="TextParagraph" font-family="Liberation Sans, sans-serif" font-size="353px" font-weight="400"><tspan class="TextPosition" x="2201" y="10287"><tspan fill="rgb(0,0,0)" stroke="none">50</tspan></tspan></tspan></text>
 <text class="TextShape"><tspan class="TextParagraph" font-family="Liberation Sans, sans-serif" font-size="353px" font-weight="400"><tspan class="TextPosition" x="2201" y="8449"><tspan fill="rgb(0,0,0)" stroke="none">60</tspan></tspan></tspan></text>
 <text class="TextShape"><tspan class="TextParagraph" font-family="Liberation Sans, sans-serif" font-size="353px" font-weight="400"><tspan class="TextPosition" x="2201" y="6611"><tspan fill="rgb(0,0,0)" stroke="none">70</tspan></tspan></tspan></text>
 <text class="TextShape"><tspan class="TextParagraph" font-family="Liberation Sans, sans-serif" font-size="353px" font-weight="400"><tspan class="TextPosition" x="2201" y="4773"><tspan fill="rgb(0,0,0)" stroke="none">80</tspan></tspan></tspan></text>
 <text class="TextShape"><tspan class="TextParagraph" font-family="Liberation Sans, sans-serif" font-size="353px" font-weight="400"><tspan class="TextPosition" x="2201" y="2935"><tspan fill="rgb(0,0,0)" stroke="none">90</tspan></tspan></tspan></text>
 <text class="TextShape"><tspan class="TextParagraph" font-family="Liberation Sans, sans-serif" font-size="353px" font-weight="400"><tspan class="TextPosition" x="2015" y="1098"><tspan fill="rgb(0,0,0)" stroke="none">100</tspan></tspan></tspan></text>
 <path fill="none" stroke="rgb(0,69,134)" stroke-width="80" stroke-linejoin="round" d="M 30045,8916 L 31645,8916"/>
 <path fill="none" stroke="rgb(42,96,153)" stroke-width="51" stroke-linejoin="round" stroke-dasharray="153,153" d="M 30045,9865 L 31645,9865"/>
 <path fill="none" stroke="rgb(255,66,14)" stroke-width="80" stroke-linejoin="round" d="M 30045,10814 L 31645,10814"/>
 <path fill="none" stroke="rgb(255,66,14)" stroke-width="51" stroke-linejoin="round" stroke-dasharray="153,153" d="M 30045,11762 L 31645,11762"/>
 <text class="TextShape"><tspan class="TextParagraph" font-family="Liberation Sans, sans-serif" font-size="353px" font-weight="400"><tspan class="TextPosition" x="31745" y="9036"><tspan fill="rgb(0,0,0)" stroke="none">Batteria [%]</tspan></tspan></tspan></text>
 <text class="TextShape"><tspan class="TextParagraph" font-family="Liberation Sans, sans-serif" font-size="353px" font-weight="400"><tspan class="TextPosition" x="31745" y="9985"><tspan fill="rgb(0,0,0)" stroke="none">Media [%]</tspan></tspan></tspan></text>
 <text class="TextShape"><tspan class="TextParagraph" font-family="Liberation Sans, sans-serif" font-size="353px" font-weight="400"><tspan class="TextPosition" x="31745" y="10934"><tspan fill="rgb(0,0,0)" stroke="none"> </tspan><tspan fill="rgb(0,0,0)" stroke="none">Peso [kg]</tspan></tspan></tspan></text>
 <text class="TextShape"><tspan class="TextParagraph" font-family="Liberation Sans, sans-serif" font-size="353px" font-weight="400"><tspan class="TextPosition" x="31745" y="11882"><tspan fill="rgb(0,0,0)" stroke="none">Media [kg]</tspan></tspan></tspan></text>
 <text class="TextShape"><tspan class="TextParagraph" font-family="Liberation Sans, sans-serif" font-size="318px" font-weight="400"><tspan class="TextPosition" x="15134" y="20827"><tspan fill="rgb(0,0,0)" stroke="none">Giorno</tspan></tspan></tspan></text>
 <text class="TextShape" transform="rotate(-90 1148 10868)"><tspan class="TextParagraph" font-family="Liberation Sans, sans-serif" font-size="318px" font-weight="400"><tspan class="TextPosition" x="1148" y="10868"><tspan fill="rgb(0,0,0)" stroke="none">Valore</tspan></tspan></tspan></text>
</svg>